STARTFONT 2.1
COMMENT  Turned into a GL font by SCO for pcfont
COMMENT
COMMENT  Copyright 1989 by Sony Corp.
COMMENT
COMMENT  Permission to use, copy, modify, and distribute this software and
COMMENT  its documentation for any purpose and without fee is hereby granted,
COMMENT  provided that the above copyright notices appear in all copies and
COMMENT  that both those copyright notices and this permission notice appear
COMMENT  in supporting documentation, and that the name of Sony Corp.
COMMENT  not be used in advertising or publicity pertaining to distribution
COMMENT  of the software without specific, written prior permission.  Sony
COMMENT  Corp. makes no representations about the suitability of this
COMMENT  software for any purpose.  It is provided "as is" without express or
COMMENT  implied warranty.
COMMENT
COMMENT  SONY DISCLAIMS ALL WARRANTIES WITH REGARD TO THIS
COMMENT  SOFTWARE, INCLUDING ALL IMPLIED WARRANTIES OF MERCHANTABILITY AND
COMMENT  FITNESS, IN NO EVENT SHALL SONY BE LIABLE FOR ANY
COMMENT  SPECIAL, INDIRECT OR CONSEQUENTIAL DAMAGES OR ANY DAMAGES WHATSOEVER
COMMENT  RESULTING FROM LOSS OF USE, DATA OR PROFITS, WHETHER IN AN ACTION OF
COMMENT  CONTRACT, NEGLIGENCE OR OTHER TORTIOUS ACTION, ARISING OUT OF OR IN
COMMENT  CONNECTION WITH THE USE OR PERFORMANCE OF THIS SOFTWARE.
COMMENT
FONT -Sony-Fixed-Medium-R-Normal--16-120-100-100-C-80-JISX0201.1976-0
SIZE 16 100 100
FONTBOUNDINGBOX 8 16 0 -2
STARTPROPERTIES 19
FONTNAME_REGISTRY ""
FOUNDRY "Sony"
FAMILY_NAME "Fixed"
WEIGHT_NAME "Medium"
SLANT "R"
SETWIDTH_NAME "Normal"
ADD_STYLE_NAME ""
PIXEL_SIZE 24
POINT_SIZE 120
RESOLUTION_X 100
RESOLUTION_Y 100
SPACING "C"
AVERAGE_WIDTH 80
CHARSET_REGISTRY "JISX0201.1976"
CHARSET_ENCODING "0"
DEFAULT_CHAR 32
FONT_DESCENT 2
FONT_ASCENT 14
COPYRIGHT "Copyright (c) 1987, 1988 Sony Corp."
ENDPROPERTIES
CHARS 64
STARTCHAR C240
ENCODING 32
SWIDTH 480 0
DWIDTH 8 0
BBX 8 16 0 -2
BITMAP
00
00
00
00
00
00
00
00
00
00
00
00
00
00
00
00
ENDCHAR
STARTCHAR C241
ENCODING 33
SWIDTH 480 0
DWIDTH 8 0
BBX 8 16 0 -2
BITMAP
00
00
00
00
00
00
00
00
00
00
00
00
20
50
50
20
ENDCHAR
STARTCHAR C242
ENCODING 34
SWIDTH 480 0
DWIDTH 8 0
BBX 8 16 0 -2
BITMAP
1e
10
10
10
10
10
10
10
10
10
10
10
00
00
00
00
ENDCHAR
STARTCHAR C243
ENCODING 35
SWIDTH 480 0
DWIDTH 8 0
BBX 8 16 0 -2
BITMAP
00
00
00
00
04
04
04
04
04
04
04
04
04
04
04
3c
ENDCHAR
STARTCHAR C244
ENCODING 36
SWIDTH 480 0
DWIDTH 8 0
BBX 8 16 0 -2
BITMAP
00
00
00
00
00
00
00
00
00
00
00
00
00
40
20
20
ENDCHAR
STARTCHAR C245
ENCODING 37
SWIDTH 480 0
DWIDTH 8 0
BBX 8 16 0 -2
BITMAP
00
00
00
00
00
00
00
18
18
00
00
00
00
00
00
00
ENDCHAR
STARTCHAR C246
ENCODING 38
SWIDTH 480 0
DWIDTH 8 0
BBX 8 16 0 -2
BITMAP
00
00
7e
02
02
02
7e
02
06
04
0c
08
18
30
00
00
ENDCHAR
STARTCHAR C247
ENCODING 39
SWIDTH 480 0
DWIDTH 8 0
BBX 8 16 0 -2
BITMAP
00
00
00
00
00
00
7e
02
16
14
10
10
10
10
30
20
ENDCHAR
STARTCHAR C250
ENCODING 40
SWIDTH 480 0
DWIDTH 8 0
BBX 8 16 0 -2
BITMAP
00
00
00
00
00
02
04
04
08
18
68
08
08
08
08
08
ENDCHAR
STARTCHAR C251
ENCODING 41
SWIDTH 480 0
DWIDTH 8 0
BBX 8 16 0 -2
BITMAP
00
00
00
00
00
10
10
7e
42
42
02
04
04
08
10
20
ENDCHAR
STARTCHAR C252
ENCODING 42
SWIDTH 480 0
DWIDTH 8 0
BBX 8 16 0 -2
BITMAP
00
00
00
00
00
00
00
7c
10
10
10
10
10
10
7e
00
ENDCHAR
STARTCHAR C253
ENCODING 43
SWIDTH 480 0
DWIDTH 8 0
BBX 8 16 0 -2
BITMAP
00
00
00
00
00
08
08
08
7e
18
18
28
28
48
08
18
ENDCHAR
STARTCHAR C254
ENCODING 44
SWIDTH 480 0
DWIDTH 8 0
BBX 8 16 0 -2
BITMAP
00
00
00
00
00
20
22
16
1a
32
48
08
08
04
04
04
ENDCHAR
STARTCHAR C255
ENCODING 45
SWIDTH 480 0
DWIDTH 8 0
BBX 8 16 0 -2
BITMAP
00
00
00
00
00
00
00
38
08
08
08
08
08
08
7e
00
ENDCHAR
STARTCHAR C256
ENCODING 46
SWIDTH 480 0
DWIDTH 8 0
BBX 8 16 0 -2
BITMAP
00
00
00
00
00
00
3c
04
04
04
3c
04
04
04
3c
00
ENDCHAR
STARTCHAR C257
ENCODING 47
SWIDTH 480 0
DWIDTH 8 0
BBX 8 16 0 -2
BITMAP
00
00
00
00
00
00
10
52
4a
22
04
04
08
08
10
20
ENDCHAR
STARTCHAR C260
ENCODING 48
SWIDTH 480 0
DWIDTH 8 0
BBX 8 16 0 -2
BITMAP
00
00
00
00
00
00
00
3c
00
00
00
00
00
00
00
00
ENDCHAR
STARTCHAR C261
ENCODING 49
SWIDTH 480 0
DWIDTH 8 0
BBX 8 16 0 -2
BITMAP
00
00
ff
01
12
14
14
10
10
10
10
10
20
20
40
00
ENDCHAR
STARTCHAR C262
ENCODING 50
SWIDTH 480 0
DWIDTH 8 0
BBX 8 16 0 -2
BITMAP
00
02
02
04
04
08
18
28
c8
08
08
08
08
08
08
00
ENDCHAR
STARTCHAR C263
ENCODING 51
SWIDTH 480 0
DWIDTH 8 0
BBX 8 16 0 -2
BITMAP
10
10
10
7e
42
42
42
42
02
02
04
04
08
10
20
00
ENDCHAR
STARTCHAR C264
ENCODING 52
SWIDTH 480 0
DWIDTH 8 0
BBX 8 16 0 -2
BITMAP
00
00
00
7e
10
10
10
10
10
10
10
10
ff
00
00
00
ENDCHAR
STARTCHAR C265
ENCODING 53
SWIDTH 480 0
DWIDTH 8 0
BBX 8 16 0 -2
BITMAP
08
08
08
08
ff
08
18
18
28
28
48
48
88
08
18
00
ENDCHAR
STARTCHAR C266
ENCODING 54
SWIDTH 480 0
DWIDTH 8 0
BBX 8 16 0 -2
BITMAP
10
10
10
10
7e
12
12
12
12
12
22
22
22
42
4e
00
ENDCHAR
STARTCHAR C267
ENCODING 55
SWIDTH 480 0
DWIDTH 8 0
BBX 8 16 0 -2
BITMAP
20
20
20
16
18
30
d0
13
0c
38
68
08
04
04
04
04
ENDCHAR
STARTCHAR C270
ENCODING 56
SWIDTH 480 0
DWIDTH 8 0
BBX 8 16 0 -2
BITMAP
10
10
10
1e
12
22
22
44
04
04
08
08
10
20
40
00
ENDCHAR
STARTCHAR C271
ENCODING 57
SWIDTH 480 0
DWIDTH 8 0
BBX 8 16 0 -2
BITMAP
20
20
20
20
3f
44
44
84
04
08
08
08
10
10
20
00
ENDCHAR
STARTCHAR C272
ENCODING 58
SWIDTH 480 0
DWIDTH 8 0
BBX 8 16 0 -2
BITMAP
00
00
00
7e
02
02
02
02
02
02
02
02
02
7e
00
00
ENDCHAR
STARTCHAR C273
ENCODING 59
SWIDTH 480 0
DWIDTH 8 0
BBX 8 16 0 -2
BITMAP
00
24
24
24
ff
24
24
24
24
04
04
08
08
10
20
00
ENDCHAR
STARTCHAR C274
ENCODING 60
SWIDTH 480 0
DWIDTH 8 0
BBX 8 16 0 -2
BITMAP
00
00
20
30
10
00
41
61
22
02
04
08
10
20
40
00
ENDCHAR
STARTCHAR C275
ENCODING 61
SWIDTH 480 0
DWIDTH 8 0
BBX 8 16 0 -2
BITMAP
00
00
7c
04
04
04
04
08
08
18
14
24
22
42
81
00
ENDCHAR
STARTCHAR C276
ENCODING 62
SWIDTH 480 0
DWIDTH 8 0
BBX 8 16 0 -2
BITMAP
00
20
20
20
2e
32
e2
24
20
20
20
20
20
3e
00
00
ENDCHAR
STARTCHAR C277
ENCODING 63
SWIDTH 480 0
DWIDTH 8 0
BBX 8 16 0 -2
BITMAP
00
00
42
42
42
22
22
02
04
04
04
08
08
10
20
00
ENDCHAR
STARTCHAR C300
ENCODING 64
SWIDTH 480 0
DWIDTH 8 0
BBX 8 16 0 -2
BITMAP
10
10
10
1e
12
22
32
4a
04
04
08
08
10
20
40
00
ENDCHAR
STARTCHAR C301
ENCODING 65
SWIDTH 480 0
DWIDTH 8 0
BBX 8 16 0 -2
BITMAP
00
02
04
78
08
08
08
ff
08
08
10
10
10
20
40
00
ENDCHAR
STARTCHAR C302
ENCODING 66
SWIDTH 480 0
DWIDTH 8 0
BBX 8 16 0 -2
BITMAP
00
00
20
a1
91
51
52
42
02
04
04
08
08
10
20
00
ENDCHAR
STARTCHAR C303
ENCODING 67
SWIDTH 480 0
DWIDTH 8 0
BBX 8 16 0 -2
BITMAP
00
00
7e
00
00
00
ff
08
08
08
10
10
10
20
40
00
ENDCHAR
STARTCHAR C304
ENCODING 68
SWIDTH 480 0
DWIDTH 8 0
BBX 8 16 0 -2
BITMAP
00
10
10
10
10
10
18
14
12
10
10
10
10
10
10
00
ENDCHAR
STARTCHAR C305
ENCODING 69
SWIDTH 480 0
DWIDTH 8 0
BBX 8 16 0 -2
BITMAP
00
08
08
08
08
ff
08
08
08
08
10
10
10
20
40
00
ENDCHAR
STARTCHAR C306
ENCODING 70
SWIDTH 480 0
DWIDTH 8 0
BBX 8 16 0 -2
BITMAP
00
00
00
00
7e
00
00
00
00
00
00
00
ff
00
00
00
ENDCHAR
STARTCHAR C307
ENCODING 71
SWIDTH 480 0
DWIDTH 8 0
BBX 8 16 0 -2
BITMAP
00
00
7e
02
02
04
24
28
18
08
14
12
22
20
40
00
ENDCHAR
STARTCHAR C310
ENCODING 72
SWIDTH 480 0
DWIDTH 8 0
BBX 8 16 0 -2
BITMAP
10
10
10
7e
02
04
08
18
34
52
91
10
10
10
10
00
ENDCHAR
STARTCHAR C311
ENCODING 73
SWIDTH 480 0
DWIDTH 8 0
BBX 8 16 0 -2
BITMAP
00
00
02
02
04
04
04
08
08
08
10
10
20
20
40
00
ENDCHAR
STARTCHAR C312
ENCODING 74
SWIDTH 480 0
DWIDTH 8 0
BBX 8 16 0 -2
BITMAP
00
00
00
24
24
24
22
22
22
22
42
41
41
81
00
00
ENDCHAR
STARTCHAR C313
ENCODING 75
SWIDTH 480 0
DWIDTH 8 0
BBX 8 16 0 -2
BITMAP
00
40
40
40
46
48
70
40
40
40
40
40
20
1e
00
00
ENDCHAR
STARTCHAR C314
ENCODING 76
SWIDTH 480 0
DWIDTH 8 0
BBX 8 16 0 -2
BITMAP
00
00
7e
02
02
02
04
04
04
08
08
10
20
40
00
00
ENDCHAR
STARTCHAR C315
ENCODING 77
SWIDTH 480 0
DWIDTH 8 0
BBX 8 16 0 -2
BITMAP
00
00
00
20
30
30
48
48
44
84
02
02
01
00
00
00
ENDCHAR
STARTCHAR C316
ENCODING 78
SWIDTH 480 0
DWIDTH 8 0
BBX 8 16 0 -2
BITMAP
00
10
10
10
ff
10
10
54
52
52
52
91
91
10
30
00
ENDCHAR
STARTCHAR C317
ENCODING 79
SWIDTH 480 0
DWIDTH 8 0
BBX 8 16 0 -2
BITMAP
00
00
00
ff
01
02
04
28
10
18
08
08
04
04
00
00
ENDCHAR
STARTCHAR C320
ENCODING 80
SWIDTH 480 0
DWIDTH 8 0
BBX 8 16 0 -2
BITMAP
00
20
18
04
00
00
20
10
0c
00
00
20
10
08
04
00
ENDCHAR
STARTCHAR C321
ENCODING 81
SWIDTH 480 0
DWIDTH 8 0
BBX 8 16 0 -2
BITMAP
00
10
10
10
10
10
20
24
24
24
22
4e
72
81
00
00
ENDCHAR
STARTCHAR C322
ENCODING 82
SWIDTH 480 0
DWIDTH 8 0
BBX 8 16 0 -2
BITMAP
00
02
02
02
04
24
24
18
08
1c
14
22
20
40
80
00
ENDCHAR
STARTCHAR C323
ENCODING 83
SWIDTH 480 0
DWIDTH 8 0
BBX 8 16 0 -2
BITMAP
00
00
7e
10
10
10
10
fe
10
10
10
10
10
1e
00
00
ENDCHAR
STARTCHAR C324
ENCODING 84
SWIDTH 480 0
DWIDTH 8 0
BBX 8 16 0 -2
BITMAP
00
20
20
23
2d
31
d2
12
10
08
08
08
08
08
08
00
ENDCHAR
STARTCHAR C325
ENCODING 85
SWIDTH 480 0
DWIDTH 8 0
BBX 8 16 0 -2
BITMAP
00
00
00
7c
04
04
04
04
04
04
04
04
ff
00
00
00
ENDCHAR
STARTCHAR C326
ENCODING 86
SWIDTH 480 0
DWIDTH 8 0
BBX 8 16 0 -2
BITMAP
00
00
7e
02
02
02
02
7e
02
02
02
02
02
7e
00
00
ENDCHAR
STARTCHAR C327
ENCODING 87
SWIDTH 480 0
DWIDTH 8 0
BBX 8 16 0 -2
BITMAP
00
00
7e
00
00
00
7e
02
02
02
04
04
08
10
20
00
ENDCHAR
STARTCHAR C330
ENCODING 88
SWIDTH 480 0
DWIDTH 8 0
BBX 8 16 0 -2
BITMAP
00
22
22
22
22
22
22
22
22
02
04
04
04
08
10
00
ENDCHAR
STARTCHAR C331
ENCODING 89
SWIDTH 480 0
DWIDTH 8 0
BBX 8 16 0 -2
BITMAP
00
08
28
28
28
28
28
29
29
29
2a
4a
4c
88
00
00
ENDCHAR
STARTCHAR C332
ENCODING 90
SWIDTH 480 0
DWIDTH 8 0
BBX 8 16 0 -2
BITMAP
00
00
20
20
20
20
20
21
21
22
22
24
28
30
00
00
ENDCHAR
STARTCHAR C333
ENCODING 91
SWIDTH 480 0
DWIDTH 8 0
BBX 8 16 0 -2
BITMAP
00
00
00
7e
42
42
42
42
42
42
42
42
7e
00
00
00
ENDCHAR
STARTCHAR C334
ENCODING 92
SWIDTH 480 0
DWIDTH 8 0
BBX 8 16 0 -2
BITMAP
00
00
7e
42
42
42
02
02
02
04
04
08
10
20
00
00
ENDCHAR
STARTCHAR C335
ENCODING 93
SWIDTH 480 0
DWIDTH 8 0
BBX 8 16 0 -2
BITMAP
00
00
40
20
10
01
02
02
04
04
08
10
20
40
00
00
ENDCHAR
STARTCHAR C336
ENCODING 94
SWIDTH 480 0
DWIDTH 8 0
BBX 8 16 0 -2
BITMAP
28
28
28
00
00
00
00
00
00
00
00
00
00
00
00
00
ENDCHAR
STARTCHAR C337
ENCODING 95
SWIDTH 480 0
DWIDTH 8 0
BBX 8 16 0 -2
BITMAP
10
28
28
10
00
00
00
00
00
00
00
00
00
00
00
00
ENDCHAR
ENDFONT
